<svg xmlns="http://www.w3.org/2000/svg" width="521" height="309" fill="none"><rect width="78.937" height="18.485" x="269" y="172.911" fill="#eab308" rx="9.242" transform="rotate(-43.075 269 172.911)"/><rect width="78.937" height="18.485" x="319" y="172.911" fill="#eab308" rx="9.242" transform="rotate(-43.075 319 172.911)"/><rect width="78.937" height="18.485" x="369.285" y="172.911" fill="#eab308" rx="9.242" transform="rotate(-43.075 369.285 172.911)"/><rect width="28.464" height="18.485" x="419.57" y="172.911" fill="#eab308" rx="9.242" transform="rotate(-43.075 419.57 172.911)"/><path fill="#eab308" d="M499.804 146.068c7.03 2.636 6.885 12.63-.219 15.061l-18.951 6.483c-5.238 1.792-10.669-2.15-10.589-7.686l.196-13.514c.081-5.535 5.624-9.318 10.808-7.374z"/><path fill="#404040" d="M141.933 101.584q.256 8.704-3.584 15.104-8.576 14.08-29.952 14.848-9.727.384-21.376-4.736l.256-19.328q1.92 1.536 4.992 3.584 5.505 3.712 12.416 3.712 18.304 0 18.304-13.056v-.256q0-6.016-6.656-9.856-3.584-2.048-13.312-4.864a138 138 0 0 1-8.32-2.816q-15.744-8.832-15.744-25.6v-.768q0-7.68 4.224-14.336 4.224-6.784 11.136-10.496 7.04-3.84 15.104-4.096 10.88-.255 20.48 4.096v18.304q-7.04-6.144-18.56-6.144-4.224 0-7.808 2.176-5.505 3.328-5.504 9.728 0 8.704 12.8 12.544 2.304.767 9.088 2.816 11.52 3.456 16.512 10.368 5.12 6.912 5.504 19.072m66.758 20.736q-9.984 9.6-23.68 9.6-14.464 0-24.448-9.856-9.856-9.984-9.856-24.448 0-14.335 9.984-24.192 9.984-9.984 24.32-9.984 13.056 0 22.784 8.832l-10.368 13.952q-4.992-5.505-12.416-5.504-7.04 0-12.032 4.992-4.992 4.864-4.992 11.904t4.992 12.032 12.032 4.992q7.68 0 12.672-5.888zm42.82-41.6q-7.04 0-12.032 4.992-4.992 4.864-4.992 11.904V130h-17.28V97.616q0-14.335 9.984-24.192 9.984-9.984 24.32-9.984zm77.051 16.896a34.5 34.5 0 0 1-.384 5.12H278.13q1.663 5.376 6.144 8.704 4.48 3.2 10.112 3.2 7.808 0 12.928-6.016l10.496 13.952q-9.857 9.344-23.424 9.344-14.464 0-24.448-9.856-9.856-9.984-9.856-24.448 0-14.335 9.984-24.192 9.984-9.984 24.32-9.984c14.336 0 17.621 3.328 24.192 9.984q9.984 9.856 9.984 24.192m-19.328-7.808q-4.736-9.088-14.848-9.088-10.24 0-14.976 9.088zm145.596 7.936q0 14.464-9.984 24.448-9.856 9.856-24.32 9.856-14.208 0-24.32-10.24-10.112 10.24-24.32 10.24-14.464 0-24.448-9.856-9.856-9.984-9.856-24.448V63.568h17.28v34.176q0 7.04 4.992 12.032t12.032 4.992c7.04 0 8.661-1.664 11.904-4.992q4.992-4.992 4.992-12.032l.128-34.176h17.28v43.008h-.128q4.992 8.192 14.464 8.192 7.04 0 11.904-4.992 4.992-4.992 4.992-12.032l.128-34.176h17.28z"/><path fill="#404040" d="M56.064 181.616H26.24V230H8.832V128.624h47.232v14.848H26.24v20.096h29.824zM147.389 230h-18.304l-3.712-9.984q-10.24 12.032-26.112 12.032-14.336 0-24.32-9.984-9.855-9.984-9.856-24.192 0-10.88 6.144-19.584 6.144-8.832 16.384-12.544 6.016-2.176 11.776-2.176 10.88 0 19.584 6.272 8.832 6.144 12.544 16.384zm-31.104-32.128q0-8.96-7.296-13.952-4.224-2.944-9.728-2.944-8.96 0-13.824 7.168-3.072 4.48-3.072 9.728 0 8.832 7.296 13.824 4.48 3.072 9.6 3.072 7.04 0 12.032-4.864 4.992-4.992 4.992-12.032m92.015 12.544q0 6.144-4.096 11.136-8.192 9.984-23.296 9.6-6.016-.128-13.184-2.688-7.04-2.56-11.52-6.4l9.6-12.416q6.912 6.528 14.72 6.528h.384q3.2 0 5.76-1.152 3.328-1.536 3.328-4.352v-.512q-.384-2.945-3.968-4.224-1.408-.257-6.016-1.152-5.76-1.152-9.728-2.816-11.648-4.992-11.648-17.536 0-12.031 11.904-18.048 5.248-2.688 11.392-2.816 6.4-.128 13.312 2.176 7.936 2.688 11.264 7.04l-11.52 10.368q-4.48-4.48-9.728-4.48-8.192 0-8.192 5.376v.256q0 2.56 6.656 4.352.512.128 8.448 1.664 16.128 3.072 16.128 19.712zM251.511 230q-14.336 0-24.32-9.856-9.984-9.984-9.984-24.32v-67.2h17.28v34.944h17.024v14.72h-17.024v17.536q0 7.04 4.992 12.032 4.992 4.864 12.032 4.864z"/></svg>